<svg xmlns="http://www.w3.org/2000/svg" width="19" height="19" fill="none"><rect width="18.251" height="18.251" x=".749" fill="#000" rx="9.125"/><path fill="#fff" fill-rule="evenodd" d="M12.162 10.044c1.884.276 3.198.9 3.198 1.626 0 .982-2.403 1.778-5.368 1.778-2.965 0-5.368-.795-5.368-1.778 0-.726 1.314-1.35 3.198-1.626.715.139 1.442.207 2.17.204a11.17 11.17 0 0 0 2.122-.194l.048-.01Zm-.809-2.969c1.71.189 2.943.722 2.943 1.35 0 .786-1.927 1.423-4.304 1.423-2.377 0-4.304-.637-4.304-1.423 0-.628 1.232-1.161 2.942-1.35a8.806 8.806 0 0 0 2.679.008l.044-.008Z" clip-rule="evenodd"/><path fill="#fff" d="M9.993 6.865c1.763 0 3.192-.477 3.192-1.067 0-.589-1.43-1.066-3.192-1.066-1.764 0-3.193.477-3.193 1.066 0 .59 1.43 1.067 3.193 1.067Z"/></svg>